<svg width="291" height="572" viewBox="0 0 291 572" fill="none" xmlns="http://www.w3.org/2000/svg" xmlns:xlink="http://www.w3.org/1999/xlink">
<path d="M291 176.91C291 175.437 289.809 174.244 288.339 174.244H287.005C285.535 174.244 284.344 175.437 284.344 176.91V239.576C284.344 241.049 285.535 242.243 287.005 242.243H288.339C289.809 242.243 291 241.049 291 239.576V176.91Z" fill="#636366"/>
<path d="M289.669 176.91C289.669 176.174 289.073 175.577 288.338 175.577H284.343C283.608 175.577 283.012 176.174 283.012 176.91V239.576C283.012 240.313 283.608 240.91 284.343 240.91H288.338C289.073 240.91 289.669 240.313 289.669 239.576V176.91Z" fill="#636366"/>
<path d="M0.00245429 279.066C0.00245445 280.538 1.19382 281.732 2.66344 281.732H4.0925C5.56212 281.732 6.75349 280.538 6.75349 279.066L6.75348 239.181C6.75348 237.709 5.56212 236.515 4.0925 236.515H2.66344C1.19382 236.515 0.00244966 237.709 0.00244982 239.181L0.00245429 279.066Z" fill="#636366"/>
<path d="M1.26901 279.131C1.26901 279.867 1.8647 280.464 2.59951 280.464H6.68955C7.42436 280.464 8.02005 279.867 8.02005 279.131L8.02004 239.116C8.02004 238.379 7.42436 237.782 6.68955 237.782L2.5995 237.782C1.86469 237.782 1.26901 238.379 1.26901 239.116L1.26901 279.131Z" fill="#636366"/>
<path d="M4.36716e-06 216.099C4.53192e-06 217.572 1.19137 218.766 2.66099 218.766H4.09005C5.55967 218.766 6.75104 217.572 6.75104 216.099L6.75103 177.061C6.75103 175.588 5.55967 174.394 4.09005 174.394H2.66099C1.19137 174.394 -1.64751e-07 175.588 0 177.061L4.36716e-06 216.099Z" fill="#636366"/>
<path d="M1.26534 216.587C1.26534 217.324 1.86102 217.921 2.59583 217.921H6.68588C7.42069 217.921 8.01637 217.324 8.01637 216.587L8.01637 176.572C8.01637 175.836 7.42068 175.239 6.68587 175.239H2.59583C1.86102 175.239 1.26533 175.836 1.26533 176.572L1.26534 216.587Z" fill="#636366"/>
<path d="M0.422596 155.669C0.422596 157.141 1.61396 158.335 3.08358 158.335H4.51264C5.98226 158.335 7.17363 157.141 7.17363 155.669L7.17363 141.563C7.17363 140.09 5.98226 138.896 4.51264 138.896L3.08358 138.896C1.61396 138.896 0.422594 140.09 0.422595 141.563L0.422596 155.669Z" fill="#636366"/>
<path d="M1.68916 155.734C1.68916 156.471 2.28484 157.068 3.01965 157.068H7.10969C7.8445 157.068 8.44019 156.471 8.44019 155.734L8.44018 141.497C8.44018 140.761 7.8445 140.164 7.10969 140.164L3.01965 140.164C2.28484 140.164 1.68915 140.761 1.68915 141.497L1.68916 155.734Z" fill="#636366"/>
<path d="M3.13574 50.0026C3.13574 22.3869 25.4751 0 53.0322 0H237.968C265.525 0 287.864 22.3869 287.864 50.0025V521.991C287.864 549.607 265.525 571.994 237.968 571.994H53.0322C25.4751 571.994 3.13574 549.607 3.13574 521.991V50.0026Z" fill="#636366"/>
<path d="M4.39014 50.5871C4.39014 23.3429 26.4291 1.25697 53.6155 1.25697H237.228C264.414 1.25697 286.453 23.3428 286.453 50.587V521.256C286.453 548.5 264.414 570.586 237.228 570.586H53.6155C26.4291 570.586 4.39014 548.5 4.39014 521.256V50.5871Z" fill="#636366"/>
<rect x="3.13574" y="60.9634" width="2.50862" height="9.42733" fill="#2C2C2E"/>
<rect x="3.13574" y="507.819" width="2.50862" height="9.42734" fill="#2C2C2E"/>
<rect x="284.728" y="60.9634" width="3.1358" height="9.42733" fill="#2C2C2E"/>
<rect x="284.728" y="507.819" width="3.1358" height="9.42734" fill="#2C2C2E"/>
<rect x="234.556" width="2.51395" height="9.40732" transform="rotate(90 234.556 0)" fill="#2C2C2E"/>
<rect x="232.047" y="568.782" width="3.21783" height="9.40732" transform="rotate(90 232.047 568.782)" fill="#2C2C2E"/>
<rect x="62.7156" width="2.51395" height="9.40732" transform="rotate(90 62.7156 0)" fill="#2C2C2E"/>
<rect x="65.8513" y="568.782" width="3.21783" height="9.40733" transform="rotate(90 65.8513 568.782)" fill="#2C2C2E"/>
<path d="M5.64429 50.5116C5.64429 24.0032 27.088 2.51395 53.5401 2.51395H237.152C263.604 2.51395 285.048 24.0032 285.048 50.5116V521.18C285.048 547.689 263.604 569.178 237.152 569.178H53.5401C27.088 569.178 5.64429 547.689 5.64429 521.18V50.5116Z" fill="#2C2C2E"/>
<path d="M12.5432 52.2462C12.5432 28.598 31.6732 9.42733 55.2713 9.42733H235.114C258.712 9.42733 277.842 28.598 277.842 52.2463V519.138C277.842 542.786 258.712 561.957 235.114 561.957H55.2713C31.6733 561.957 12.5432 542.786 12.5432 519.138V52.2462Z" fill="url(#pattern0_409_644)"/>
<path d="M105.362 30.4817C105.362 23.7132 110.837 18.2262 117.592 18.2262H173.408C180.163 18.2262 185.638 23.7132 185.638 30.4817C185.638 37.2502 180.163 42.7372 173.408 42.7372H117.592C110.837 42.7372 105.362 37.2502 105.362 30.4817Z" fill="#2C2C2E"/>
<ellipse cx="173.095" cy="30.7959" rx="5.01723" ry="5.02791" fill="#1C1C1E"/>
<defs>
<pattern id="pattern0_409_644" patternContentUnits="objectBoundingBox" width="1" height="1">
<use xlink:href="#image0_409_644" transform="matrix(0.00128205 0 0 0.000615582 0 -0.0195509)"/>
</pattern>
<image id="image0_409_644" width="780" height="1688" href=""/>
</defs>
</svg>
