<svg width="372" height="496" viewBox="0 0 372 496" fill="none" xmlns="http://www.w3.org/2000/svg">
<path d="M248.07 434.155C248.07 426.034 249.667 417.992 252.77 410.488C255.874 402.985 260.422 396.167 266.157 390.425C271.891 384.682 278.698 380.126 286.191 377.018C293.683 373.91 301.713 372.311 309.822 372.311V434.155H248.07Z" fill="white" fill-opacity="0.2" style="mix-blend-mode:plus-lighter"/>
<path d="M248.07 496C248.07 487.878 249.667 479.836 252.77 472.333C255.874 464.83 260.422 458.012 266.157 452.269C271.891 446.526 278.698 441.971 286.191 438.863C293.683 435.755 301.713 434.155 309.822 434.155V496H248.07Z" fill="white" fill-opacity="0.2" style="mix-blend-mode:plus-lighter"/>
<path d="M309.822 372.311C309.822 380.432 311.42 388.474 314.523 395.978C317.626 403.481 322.175 410.299 327.909 416.042C333.643 421.784 340.451 426.34 347.943 429.448C355.435 432.556 363.465 434.155 371.575 434.155V372.311H309.822Z" fill="white" fill-opacity="0.2" style="mix-blend-mode:plus-lighter"/>
<path d="M309.822 434.155C309.822 442.277 311.42 450.319 314.523 457.822C317.626 465.326 322.175 472.143 327.909 477.886C333.643 483.629 340.451 488.184 347.943 491.292C355.435 494.4 363.465 496 371.575 496V434.155H309.822Z" fill="white" fill-opacity="0.2" style="mix-blend-mode:plus-lighter"/>
<path d="M309.471 310.713C309.471 302.591 307.874 294.549 304.771 287.046C301.667 279.543 297.119 272.725 291.385 266.982C285.65 261.239 278.843 256.684 271.351 253.576C263.858 250.468 255.828 248.868 247.719 248.868V310.713H309.471Z" fill="white" fill-opacity="0.2" style="mix-blend-mode:plus-lighter"/>
<path d="M309.471 310.713C309.471 302.591 311.069 294.549 314.172 287.046C317.275 279.543 321.824 272.725 327.558 266.982C333.293 261.239 340.1 256.684 347.592 253.576C355.084 250.468 363.114 248.868 371.224 248.868V310.713H309.471Z" fill="white" fill-opacity="0.2" style="mix-blend-mode:plus-lighter"/>
<path d="M371.224 372.557C371.224 356.155 364.718 340.425 353.137 328.827C341.556 317.229 325.849 310.713 309.471 310.713C293.094 310.713 277.387 317.229 265.806 328.827C254.225 340.425 247.719 356.155 247.719 372.557H371.224Z" fill="white" fill-opacity="0.2" style="mix-blend-mode:plus-lighter"/>
<path d="M124.46 310.713C124.46 302.591 126.058 294.549 129.161 287.046C132.264 279.543 136.813 272.725 142.547 266.982C148.281 261.239 155.089 256.684 162.581 253.576C170.073 250.468 178.103 248.868 186.213 248.868V310.713H124.46Z" fill="white" fill-opacity="0.2" style="mix-blend-mode:plus-lighter"/>
<path d="M186.213 310.713C186.213 302.591 187.81 294.549 190.913 287.046C194.017 279.543 198.565 272.725 204.3 266.982C210.034 261.239 216.841 256.684 224.334 253.576C231.826 250.468 239.856 248.868 247.965 248.868V310.713H186.213Z" fill="white" fill-opacity="0.2" style="mix-blend-mode:plus-lighter"/>
<path d="M124.46 372.557C124.46 356.155 130.966 340.425 142.547 328.827C154.128 317.229 169.835 310.713 186.213 310.713C202.591 310.713 218.298 317.229 229.878 328.827C241.459 340.425 247.965 356.155 247.965 372.557L124.46 372.557Z" fill="white" fill-opacity="0.2" style="mix-blend-mode:plus-lighter"/>
<path d="M309.471 186.568C309.471 194.689 311.069 202.731 314.172 210.235C317.275 217.738 321.824 224.556 327.558 230.298C333.293 236.041 340.1 240.597 347.592 243.705C355.084 246.813 363.114 248.412 371.224 248.412V186.568H309.471Z" fill="white" fill-opacity="0.2" style="mix-blend-mode:plus-lighter"/>
<path d="M247.719 248.412C247.719 240.291 249.316 232.249 252.42 224.745C255.523 217.242 260.072 210.424 265.806 204.681C271.54 198.939 278.348 194.383 285.84 191.275C293.332 188.167 301.362 186.568 309.471 186.568V248.412H247.719Z" fill="white" fill-opacity="0.2" style="mix-blend-mode:plus-lighter"/>
<path d="M309.471 186.568C309.471 178.446 307.874 170.404 304.771 162.901C301.667 155.397 297.119 148.58 291.385 142.837C285.65 137.094 278.843 132.539 271.351 129.431C263.858 126.323 255.828 124.723 247.719 124.723V186.568L309.471 186.568Z" fill="white" fill-opacity="0.2" style="mix-blend-mode:plus-lighter"/>
<path d="M371.224 124.723C371.224 132.845 369.627 140.887 366.523 148.39C363.42 155.893 358.871 162.711 353.137 168.454C347.403 174.197 340.595 178.752 333.103 181.86C325.611 184.968 317.581 186.568 309.471 186.568V124.723H371.224Z" fill="white" fill-opacity="0.2" style="mix-blend-mode:plus-lighter"/>
<path d="M247.614 186.568C247.614 178.446 246.017 170.404 242.914 162.901C239.81 155.397 235.262 148.58 229.528 142.837C223.793 137.094 216.986 132.539 209.494 129.431C202.001 126.323 193.971 124.723 185.862 124.723V186.568H247.614Z" fill="white" fill-opacity="0.2" style="mix-blend-mode:plus-lighter"/>
<path d="M247.614 248.412C247.614 240.291 246.017 232.249 242.914 224.745C239.81 217.242 235.262 210.424 229.528 204.681C223.793 198.939 216.986 194.383 209.494 191.275C202.001 188.167 193.971 186.568 185.862 186.568V248.412H247.614Z" fill="white" fill-opacity="0.2" style="mix-blend-mode:plus-lighter"/>
<path d="M185.862 124.723C185.862 132.845 184.265 140.887 181.161 148.39C178.058 155.893 173.509 162.711 167.775 168.454C162.041 174.197 155.233 178.752 147.741 181.86C140.249 184.968 132.219 186.568 124.109 186.568V124.723H185.862Z" fill="white" fill-opacity="0.2" style="mix-blend-mode:plus-lighter"/>
<path d="M124.109 186.568C124.109 194.689 125.707 202.731 128.81 210.235C131.913 217.738 136.462 224.556 142.196 230.298C147.931 236.041 154.738 240.597 162.23 243.705C169.722 246.813 177.753 248.412 185.862 248.412V186.568H124.109Z" fill="white" fill-opacity="0.2" style="mix-blend-mode:plus-lighter"/>
<path d="M185.616 495.753C177.506 495.753 169.476 494.154 161.984 491.046C154.492 487.938 147.684 483.382 141.95 477.639C136.216 471.897 131.667 465.079 128.564 457.576C125.46 450.072 123.863 442.03 123.863 433.909C123.863 425.787 125.46 417.745 128.564 410.242C131.667 402.738 136.216 395.921 141.95 390.178C147.684 384.435 154.492 379.88 161.984 376.772C169.476 373.664 177.506 372.064 185.616 372.064L185.616 433.909V495.753Z" fill="white" fill-opacity="0.2" style="mix-blend-mode:plus-lighter"/>
<path d="M185.616 433.909C185.616 425.787 187.213 417.745 190.316 410.242C193.42 402.738 197.968 395.921 203.702 390.178C209.437 384.435 216.244 379.88 223.736 376.772C231.229 373.664 239.259 372.064 247.368 372.064V433.909H185.616Z" fill="white" fill-opacity="0.2" style="mix-blend-mode:plus-lighter"/>
<path d="M185.616 495.753C185.616 487.632 187.213 479.59 190.316 472.086C193.42 464.583 197.968 457.765 203.702 452.023C209.437 446.28 216.244 441.724 223.736 438.616C231.229 435.508 239.259 433.909 247.368 433.909V495.753H185.616Z" fill="white" fill-opacity="0.2" style="mix-blend-mode:plus-lighter"/>
<path d="M62.2525 124.125C62.2525 132.247 63.8498 140.289 66.9531 147.792C70.0565 155.295 74.6051 162.113 80.3394 167.856C86.0736 173.598 92.8812 178.154 100.373 181.262C107.865 184.37 115.896 185.97 124.005 185.97V124.125H62.2525Z" fill="white" fill-opacity="0.2" style="mix-blend-mode:plus-lighter"/>
<path d="M62.2525 247.814C62.2525 239.693 63.8498 231.651 66.9531 224.147C70.0565 216.644 74.6051 209.826 80.3394 204.083C86.0736 198.341 92.8812 193.785 100.373 190.677C107.865 187.569 115.896 185.97 124.005 185.97V247.814H62.2525Z" fill="white" fill-opacity="0.2" style="mix-blend-mode:plus-lighter"/>
<path d="M62.2525 124.125C62.2525 132.247 60.6552 140.289 57.5519 147.792C54.4485 155.295 49.8999 162.113 44.1656 167.856C38.4314 173.598 31.6238 178.154 24.1317 181.262C16.6395 184.37 8.60945 185.97 0.5 185.97V124.125H62.2525Z" fill="white" fill-opacity="0.2" style="mix-blend-mode:plus-lighter"/>
<path d="M62.2525 247.814C62.2525 239.693 60.6552 231.651 57.5519 224.147C54.4485 216.644 49.8999 209.826 44.1656 204.083C38.4314 198.341 31.6238 193.785 24.1317 190.677C16.6395 187.569 8.60945 185.97 0.5 185.97V247.814H62.2525Z" fill="white" fill-opacity="0.2" style="mix-blend-mode:plus-lighter"/>
<path d="M0.850848 124.02C0.850848 115.899 2.44813 107.857 5.55148 100.353C8.65484 92.8501 13.2035 86.0324 18.9377 80.2896C24.672 74.5467 31.4795 69.9913 38.9717 66.8833C46.4638 63.7753 54.4939 62.1757 62.6033 62.1757V124.02H0.850848Z" fill="white" fill-opacity="0.2" style="mix-blend-mode:plus-lighter"/>
<path d="M0.850848 62.1757C0.850848 54.0542 2.44813 46.0121 5.55148 38.5088C8.65484 31.0055 13.2035 24.1877 18.9377 18.4449C24.672 12.7021 31.4795 8.14671 38.9717 5.03873C46.4638 1.93074 54.4939 0.3311 62.6033 0.3311V62.1757L0.850848 62.1757Z" fill="white" fill-opacity="0.2" style="mix-blend-mode:plus-lighter"/>
<path d="M124.356 62.1757C124.356 70.2973 122.759 78.3393 119.655 85.8426C116.552 93.346 112.003 100.164 106.269 105.906C100.535 111.649 93.7271 116.205 86.235 119.313C78.7428 122.421 70.7128 124.02 62.6033 124.02V62.1757L124.356 62.1757Z" fill="white" fill-opacity="0.2" style="mix-blend-mode:plus-lighter"/>
<path d="M124.356 0.331055C124.356 8.45261 122.759 16.4946 119.655 23.998C116.552 31.5013 112.003 38.319 106.269 44.0618C100.535 49.8046 93.7271 54.36 86.235 57.468C78.7428 60.576 70.7128 62.1757 62.6033 62.1757V0.3311L124.356 0.331055Z" fill="white" fill-opacity="0.2" style="mix-blend-mode:plus-lighter"/>
<path d="M247.473 125.216C247.473 108.814 253.979 93.0837 265.559 81.4856C277.14 69.8875 292.847 63.3718 309.225 63.3718C325.603 63.3718 341.31 69.8875 352.891 81.4856C364.472 93.0837 370.978 108.814 370.978 125.216H247.473Z" fill="white" fill-opacity="0.2" style="mix-blend-mode:plus-lighter"/>
<path d="M247.473 63.3718C247.473 55.2502 249.07 47.2082 252.173 39.7049C255.277 32.2015 259.825 25.3838 265.559 19.641C271.294 13.8982 278.101 9.34278 285.593 6.2348C293.086 3.12682 301.116 1.52716 309.225 1.52716L309.225 63.3718H247.473Z" fill="white" fill-opacity="0.2" style="mix-blend-mode:plus-lighter"/>
<path d="M309.225 1.52716C309.225 9.64871 310.822 17.6907 313.926 25.194C317.029 32.6974 321.578 39.5151 327.312 45.2579C333.046 51.0007 339.854 55.5561 347.346 58.6641C354.838 61.7721 362.868 63.3717 370.978 63.3717V1.52715L309.225 1.52716Z" fill="white" fill-opacity="0.2" style="mix-blend-mode:plus-lighter"/>
<path d="M186.213 63.1252C186.213 55.0036 187.81 46.9616 190.913 39.4583C194.017 31.9549 198.565 25.1372 204.3 19.3944C210.034 13.6516 216.841 9.09617 224.334 5.98819C231.826 2.88021 239.856 1.28056 247.965 1.28056V63.1252H186.213Z" fill="white" fill-opacity="0.2" style="mix-blend-mode:plus-lighter"/>
<path d="M186.213 124.97C186.213 116.848 187.81 108.806 190.913 101.303C194.017 93.7995 198.565 86.9818 204.3 81.239C210.034 75.4962 216.841 70.9408 224.334 67.8328C231.826 64.7248 239.856 63.1252 247.965 63.1252V124.97H186.213Z" fill="white" fill-opacity="0.2" style="mix-blend-mode:plus-lighter"/>
<path d="M124.46 63.1252C124.46 55.0036 126.058 46.9616 129.161 39.4583C132.264 31.9549 136.813 25.1372 142.547 19.3944C148.281 13.6516 155.089 9.09617 162.581 5.98819C170.073 2.88021 178.103 1.28056 186.213 1.28056V63.1252H124.46Z" fill="white" fill-opacity="0.2" style="mix-blend-mode:plus-lighter"/>
<path d="M124.46 124.97C124.46 116.848 126.058 108.806 129.161 101.303C132.264 93.7995 136.813 86.9818 142.547 81.239C148.281 75.4962 155.089 70.9408 162.581 67.8328C170.073 64.7248 178.103 63.1252 186.213 63.1252V124.97H124.46Z" fill="white" fill-opacity="0.2" style="mix-blend-mode:plus-lighter"/>
</svg>
