<svg id="Capa_1" data-name="Capa 1" xmlns="http://www.w3.org/2000/svg" viewBox="0 0 90 90"><rect width="90" height="90" rx="29.33" style="fill:#086fb7"/><polygon points="15.26 60.87 24.61 66.48 24.61 42.36 15.19 39.01 15.26 60.87" style="fill:#ffe564"/><polygon points="23.01 36.33 15.19 39.01 24.61 42.36 32.02 39.07 23.01 36.33" style="fill:#f7f5c6"/><polygon points="32.02 38.87 32.02 61.53 24.61 66.48 24.61 42.15 32.02 38.87" style="fill:#75b838"/><polygon points="74.75 60.87 65.39 66.47 65.39 42.36 74.81 39.01 74.75 60.87" style="fill:#75b838"/><polygon points="66.99 36.33 74.81 39.01 65.39 42.36 57.98 39.07 66.99 36.33" style="fill:#f7f5c6"/><polygon points="57.98 39.07 57.98 61.74 65.39 66.46 65.39 42.36 57.98 39.07" style="fill:#ffe564"/><polygon points="30.47 69.96 45 78.64 45 23.32 30.64 17.6 30.47 69.96" style="fill:#ffe564"/><polygon points="59.54 69.95 45 78.64 45 23.32 59.37 17.6 59.54 69.95" style="fill:#75b838"/><polygon points="45 11.35 30.64 17.6 45 23.32 59.37 17.6 45 11.35" style="fill:#f7f5c6"/></svg>